:SAMPLES-PER-SECOND 30
:FULLY-SPECIFIED
:DEGREES
307
root  -17.6563 34.4712 -14.7959 -170.66 -0.89917 178.941
RightUpLeg  -8.56759 -18.4806 -2.96465
RightLeg  7.56986 -3.18136 -0.214586
RightFoot  3.60136 0.0164408 -0.0521319
RightToes  -29.1733 -0.138285 -0.24806
Spine  -2.83421 -0.133865 -0.00192154
Spine1  -5.68731 -0.326028 0.586706
HEad  -63.864 0.00185776 7.89174
LeftShoulder1  -1.94126e-019 -3.10601e-018 -2.51263e-017
LeftArm  -28.0941 29.9316 -79.8205
LeftForeArm  22.3382 -10.4514 -1.82786
LeftHand  -0.454893 0.640426 10.9913
RightShoulder  -4.96962e-017 0 -2.36833e-017
RightArm  -51.779 -27.0182 73.6567
RightForeArm  55.318 7.53686 1.30152
RightHand  0.0639021 -5.93046 -16.8179
LeftUpLeg  -8.33558 -0.519118 2.2733
LeftLeg  7.33949 12.1544 0.770099
LeftFoot  3.79642 -0.00563042 0.909164
LeftToes  -21.7399 1.7763e-006 6.54387e-008
308
root  -17.6523 34.4852 -14.7854 -170.654 -0.862869 178.942
RightUpLeg  -8.4791 -18.4883 -2.95061
RightLeg  7.32197 -3.14095 -0.198212
RightFoot  3.7298 0.0170432 -0.057604
RightToes  -29.1203 -0.138068 -0.247827
Spine  -2.81737 -0.159078 0.0135681
Spine1  -5.65984 -0.372472 0.617432
HEad  -63.8054 -0.129349 8.01915
LeftShoulder1  -1.94126e-019 -3.10601e-018 -2.51263e-017
LeftArm  -27.7868 29.6111 -79.6543
LeftForeArm  22.407 -10.6178 -1.85466
LeftHand  -0.45817 0.58611 11.0152
RightShoulder  -4.96962e-017 0 -2.36833e-017
RightArm  -51.8952 -26.7488 73.7818
RightForeArm  54.7291 7.66612 1.32333
RightHand  0.0675724 -5.95804 -16.7726
LeftUpLeg  -8.21238 -0.499859 2.27397
LeftLeg  7.04515 12.1702 0.70885
LeftFoot  3.94652 -0.00701716 0.943493
LeftToes  -21.7411 1.7763e-006 6.54387e-008
309
root  -17.6455 34.4974 -14.7757 -170.638 -0.77655 178.945
RightUpLeg  -8.40014 -18.4527 -2.92559
RightLeg  7.05623 -3.09684 -0.181011
RightFoot  3.87755 0.0177066 -0.0639169
RightToes  -29.1278 -0.13785 -0.247589
Spine  -2.81411 -0.182048 0.0254758
Spine1  -5.65829 -0.414383 0.639198
HEad  -63.6553 -0.267428 8.09012
LeftShoulder1  -1.94126e-019 -3.10601e-018 -2.51263e-017
LeftArm  -27.5112 29.4131 -79.5464
LeftForeArm  22.4857 -10.8599 -1.89321
LeftHand  -0.456251 0.62932 11.1459
RightShoulder  -4.96962e-017 0 -2.36833e-017
RightArm  -52.1435 -26.4422 73.9153
RightForeArm  54.2359 7.62545 1.3184
RightHand  0.0895193 -6.10632 -16.8808
LeftUpLeg  -8.10547 -0.424133 2.27802
LeftLeg  6.78247 12.1866 0.654209
LeftFoot  4.09023 -0.00833359 0.97628
LeftToes  -21.7389 1.7763e-006 6.54387e-008
310
root  -17.6382 34.5068 -14.7689 -170.604 -0.623138 178.962
RightUpLeg  -8.35974 -18.3974 -2.8867
RightLeg  6.81334 -2.99854 -0.162501
RightFoot  4.01985 0.01799 -0.0647799
RightToes  -29.1917 -0.137631 -0.247344
Spine  -2.82557 -0.192302 0.0409197
Spine1  -5.68476 -0.429279 0.668081
HEad  -63.4478 -0.35528 8.1987
LeftShoulder1  -1.94126e-019 -3.10601e-018 -2.51263e-017
LeftArm  -27.2835 29.326 -79.5101
LeftForeArm  22.5117 -11.0429 -1.92145
LeftHand  -0.455119 0.572875 11.2136
RightShoulder  -4.96962e-017 0 -2.36833e-017
RightArm  -52.326 -26.1578 74.0347
RightForeArm  54.2858 7.5242 1.30182
RightHand  0.0842454 -6.06953 -16.8821
LeftUpLeg  -8.02841 -0.320829 2.29233
LeftLeg  6.58187 12.2323 0.614043
LeftFoot  4.17711 -0.00906099 0.999415
LeftToes  -21.7048 1.7763e-006 6.54387e-008
311
root  -17.6292 34.5113 -14.7606 -170.551 -0.429443 178.996
RightUpLeg  -8.39737 -18.3115 -2.82141
RightLeg  6.67695 -2.89691 -0.150058
RightFoot  4.10318 0.0181041 -0.0632104
RightToes  -29.1694 -0.137412 -0.247096
Spine  -2.82952 -0.192799 0.0677218
Spine1  -5.69552 -0.427694 0.720251
HEad  -63.3413 -0.388489 8.20669
LeftShoulder1  -1.94126e-019 -3.10601e-018 -2.51263e-017
LeftArm  -27.0547 29.232 -79.5459
LeftForeArm  22.388 -11.1243 -1.93437
LeftHand  -0.456802 0.568848 11.1631
RightShoulder  -4.96962e-017 0 -2.36833e-017
RightArm  -52.2551 -25.9499 74.1578
RightForeArm  54.4188 7.56833 1.30844
RightHand  0.0744739 -6.00396 -16.8273
LeftUpLeg  -8.02079 -0.196008 2.32007
LeftLeg  6.49286 12.3133 0.599039
LeftFoot  4.21386 -0.00931812 1.0147
LeftToes  -21.782 1.7763e-006 6.54387e-008
312
root  -17.6226 34.5129 -14.7523 -170.517 -0.220734 179.029
RightUpLeg  -8.44825 -18.1685 -2.76859
RightLeg  6.59639 -2.83716 -0.14295
RightFoot  4.15797 0.018171 -0.0609637
RightToes  -29.1226 -0.137194 -0.246844
Spine  -2.82046 -0.196165 0.0887546
Spine1  -5.67932 -0.422967 0.762359
HEad  -63.2859 -0.374784 8.23581
LeftShoulder1  -1.94126e-019 -3.10601e-018 -2.51263e-017
LeftArm  -26.8253 29.2053 -79.6225
LeftForeArm  22.4619 -11.1777 -1.94217
LeftHand  -0.461065 0.442118 11.0316
RightShoulder  -4.96962e-017 0 -2.36833e-017
RightArm  -52.0446 -25.8451 74.3079
RightForeArm  54.3623 7.74237 1.33597
RightHand  0.074917 -6.00891 -16.7863
LeftUpLeg  -8.00724 -0.0287896 2.34494
LeftLeg  6.43689 12.3462 0.588632
LeftFoot  4.2195 -0.0089374 1.01948
LeftToes  -21.7892 1.7763e-006 6.54387e-008
313
root  -17.6175 34.514 -14.7423 -170.489 -0.021637 179.055
RightUpLeg  -8.53844 -18.0267 -2.72673
RightLeg  6.61139 -2.78908 -0.141245
RightFoot  4.17381 0.0181836 -0.0579477
RightToes  -29.1414 -0.136979 -0.246589
Spine  -2.79241 -0.199661 0.105181
Spine1  -5.62424 -0.425292 0.796036
HEad  -63.3268 -0.323917 8.25612
LeftShoulder1  -1.94126e-019 -3.10601e-018 -2.51263e-017
LeftArm  -26.5886 29.1762 -79.7133
LeftForeArm  22.5429 -11.2064 -1.94635
LeftHand  -0.462274 0.403583 10.9739
RightShoulder  -4.96962e-017 0 -2.36833e-017
RightArm  -51.8613 -25.7641 74.4218
RightForeArm  54.1873 7.90701 1.36048
RightHand  0.0664497 -5.93969 -16.751
LeftUpLeg  -8.01057 0.0707317 2.3632
LeftLeg  6.41985 12.4358 0.589165
LeftFoot  4.2266 -0.00888403 1.02872
LeftToes  -21.8116 1.7763e-006 6.54387e-008
314
root  -17.614 34.5148 -14.7331 -170.47 0.151337 179.069
RightUpLeg  -8.60503 -17.8492 -2.70561
RightLeg  6.61361 -2.79673 -0.141743
RightFoot  4.19493 0.0182207 -0.0552957
RightToes  -29.1556 -0.136767 -0.246332
Spine  -2.75772 -0.215984 0.110711
Spine1  -5.55495 -0.456875 0.807921
HEad  -63.3757 -0.255046 8.37287
LeftShoulder1  -1.94126e-019 -3.10601e-018 -2.51263e-017
LeftArm  -26.5285 29.1596 -79.7981
LeftForeArm  22.553 -11.2399 -1.95374
LeftHand  -0.462114 0.436134 10.951
RightShoulder  -4.96962e-017 0 -2.36833e-017
RightArm  -51.7622 -25.7061 74.4918
RightForeArm  54.1311 7.97714 1.37048
RightHand  0.0603547 -5.90859 -16.7431
LeftUpLeg  -8.00484 0.235202 2.36555
LeftLeg  6.39542 12.4479 0.584459
LeftFoot  4.22247 -0.00829094 1.02889
LeftToes  -21.8172 1.7763e-006 6.54387e-008
315
root  -17.6125 34.5153 -14.7299 -170.452 0.260132 179.078
RightUpLeg  -8.64162 -17.8253 -2.68738
RightLeg  6.59152 -2.71491 -0.136524
RightFoot  4.20879 0.0182642 -0.05276
RightToes  -29.1492 -0.13656 -0.246076
Spine  -2.74698 -0.228154 0.109511
Spine1  -5.53235 -0.483881 0.806764
HEad  -63.2876 -0.288777 8.47323
LeftShoulder1  -1.94126e-019 -3.10601e-018 -2.51263e-017
LeftArm  -26.5109 29.1913 -79.863
LeftForeArm  22.4501 -11.2207 -1.95239
LeftHand  -0.464011 0.42288 10.883
RightShoulder  -4.96962e-017 0 -2.36833e-017
RightArm  -51.7262 -25.7356 74.4832
RightForeArm  54.0677 7.92152 1.36286
RightHand  0.068489 -5.96502 -16.7598
LeftUpLeg  -7.99941 0.313851 2.36609
LeftLeg  6.37344 12.4724 0.580835
LeftFoot  4.22455 -0.00780947 1.03007
LeftToes  -21.8241 1.7763e-006 6.54387e-008
316
root  -17.6113 34.5152 -14.7295 -170.414 0.410416 179.089
RightUpLeg  -8.71734 -17.74 -2.66722
RightLeg  6.60877 -2.65443 -0.134263
RightFoot  4.21497 0.018329 -0.0505601
RightToes  -29.1399 -0.136358 -0.245819
Spine  -2.72936 -0.220038 0.102457
Spine1  -5.49549 -0.472574 0.792515
HEad  -63.1511 -0.342864 8.58869
LeftShoulder1  -1.94126e-019 -3.10601e-018 -2.51263e-017
LeftArm  -26.5613 29.2167 -79.9212
LeftForeArm  22.3126 -11.1815 -1.94593
LeftHand  -0.461515 0.434375 10.9625
RightShoulder  -4.96962e-017 0 -2.36833e-017
RightArm  -51.5599 -25.8064 74.4379
RightForeArm  54.1413 7.86399 1.35462
RightHand  0.0760104 -6.0178 -16.7598
LeftUpLeg  -8.01858 0.41329 2.36507
LeftLeg  6.38978 12.515 0.58634
LeftFoot  4.20919 -0.00732529 1.03044
LeftToes  -21.8674 1.7763e-006 6.54387e-008
317
root  -17.6102 34.5135 -14.7289 -170.366 0.551956 179.099
RightUpLeg  -8.79492 -17.6829 -2.64411
RightLeg  6.60738 -2.57573 -0.130193
RightFoot  4.23186 0.0184298 -0.0489152
RightToes  -29.2182 -0.136163 -0.245564
Spine  -2.71849 -0.199618 0.0947684
Spine1  -5.47183 -0.438065 0.776629
HEad  -63.111 -0.40976 8.67397
LeftShoulder1  -1.94126e-019 -3.10601e-018 -2.51263e-017
LeftArm  -26.5645 29.2437 -79.9573
LeftForeArm  22.399 -11.16 -1.94182
LeftHand  -0.463483 0.454878 10.9079
RightShoulder  -4.96962e-017 0 -2.36833e-017
RightArm  -51.3816 -25.9177 74.3531
RightForeArm  54.1305 7.79637 1.34475
RightHand  0.0818696 -6.05659 -16.8074
LeftUpLeg  -8.05303 0.517369 2.36304
LeftLeg  6.40875 12.5546 0.592299
LeftFoot  4.18504 -0.006672 1.02736
LeftToes  -21.8699 1.7763e-006 6.54387e-008
318
root  -17.609 34.5106 -14.729 -170.327 0.630371 179.101
RightUpLeg  -8.85943 -17.6304 -2.62976
RightLeg  6.62834 -2.55674 -0.130163
RightFoot  4.2062 0.0185624 -0.0477759
RightToes  -29.2073 -0.135975 -0.245311
Spine  -2.71746 -0.194525 0.0886232
Spine1  -5.46785 -0.433619 0.764068
HEad  -63.0841 -0.459114 8.611
LeftShoulder1  -1.94126e-019 -3.10601e-018 -2.51263e-017
LeftArm  -26.5088 29.2744 -79.9793
LeftForeArm  22.4555 -11.0864 -1.92834
LeftHand  -0.464294 0.423593 10.8911
RightShoulder  -4.96962e-017 0 -2.36833e-017
RightArm  -51.2891 -26.0289 74.2276
RightForeArm  54.0333 7.71878 1.3332
RightHand  0.0861619 -6.09003 -16.7401
LeftUpLeg  -8.09292 0.570547 2.36136
LeftLeg  6.4392 12.5727 0.599776
LeftFoot  4.14917 -0.00579605 1.01996
LeftToes  -21.8814 1.7763e-006 6.54387e-008
319
root  -17.6072 34.5078 -14.7326 -170.283 0.691116 179.103
RightUpLeg  -8.92382 -17.6312 -2.61289
RightLeg  6.65721 -2.49506 -0.128261
RightFoot  4.18632 0.0187108 -0.0469208
RightToes  -29.2388 -0.135797 -0.245061
Spine  -2.71726 -0.190531 0.0867413
Spine1  -5.46078 -0.43306 0.758339
HEad  -63.1022 -0.468278 8.46633
LeftShoulder1  -1.94126e-019 -3.10601e-018 -2.51263e-017
LeftArm  -26.5407 29.3112 -80.0121
LeftForeArm  22.4194 -11.0844 -1.92808
LeftHand  -0.464412 0.418826 10.8878
RightShoulder  -4.96962e-017 0 -2.36833e-017
RightArm  -51.3172 -26.0969 74.0873
RightForeArm  54.0196 7.63623 1.32047
RightHand  0.0903942 -6.11853 -16.7633
LeftUpLeg  -8.14118 0.633352 2.36196
LeftLeg  6.48431 12.5698 0.609472
LeftFoot  4.11771 -0.00492022 1.01165
LeftToes  -21.8866 1.7763e-006 6.54387e-008
